PathFileType	4	(X/Y/Z)	Patient4_TMGait_0pt7_01_left_01.trc.trc
DataRate	CameraRate	NumFrames	NumMarkers	Units	OrigDataRate	OrigDataStartFrame	OrigNumFrames
86.956521739130	86.956521739130	4	33	mm	86.956521739130	36	       141
Frame#	Time	Sacral			L.Shoulder			Chest			R.Shoulder			Neck			R.ASIS			L.ASIS			R.Thigh.Superior			R.Thigh.Lateral			R.Thigh.Inferior			R.Patella			L.Thigh.Superior			L.Thigh.Lateral			L.Thigh.Inferior			L.Patella			L.Shank.Superior			L.Shank.Lateral			L.Shank.Inferior			R.Shank.Superior			R.Shank.Lateral			R.Shank.Inferior			R.Heel			R.Midfoot.Superior			R.Midfoot.Lateral			R.Toe			L.Heel			L.Midfoot.Lateral			L.Midfoot.Superior			L.Toe			L.Elbow			L.Wrist			R.Elbow			R.Wrist			
		X1	Y1	Z1	X2	Y2	Z2	X3	Y3	Z3	X4	Y4	Z4	X5	Y5	Z5	X6	Y6	Z6	X7	Y7	Z7	X8	Y8	Z8	X9	Y9	Z9	X10	Y10	Z10	X11	Y11	Z11	X12	Y12	Z12	X13	Y13	Z13	X14	Y14	Z14	X15	Y15	Z15	X16	Y16	Z16	X17	Y17	Z17	X18	Y18	Z18	X19	Y19	Z19	X20	Y20	Z20	X21	Y21	Z21	X22	Y22	Z22	X23	Y23	Z23	X24	Y24	Z24	X25	Y25	Z25	X26	Y26	Z26	X27	Y27	Z27	X28	Y28	Z28	X29	Y29	Z29	X30	Y30	Z30	X31	Y31	Z31	X32	Y32	Z32	X33	Y33	Z33	

36	1.532500000000	774.067778591616	1004.859977272981	520.464779374665	948.951645212264	1422.517384029691	330.309624052988	1053.926783474887	1357.854077164458	493.848436107887	970.793855743053	1441.104224150003	665.070179601004	949.293123019641	1490.715471641701	485.802090942540	993.010433319568	938.134577436790	647.176893016060	992.613197497090	950.644081123757	372.419744257041	1011.787990104758	727.759439244751	631.026786155938	913.636131100267	626.782906830833	687.297670646762	992.659103937443	561.069403205945	620.173648614676	974.677870795442	457.043797385943	636.074603716376	1058.550077422050	762.448723950275	402.933812306384	988.991572895642	637.265371205361	336.533429695118	1084.113813977133	571.431819920438	399.143786474514	1093.924196560173	501.632083153364	406.422315971003	1075.610110264680	426.835564422036	397.895157420738	998.765285325305	302.624793306745	348.458310691921	1066.530129655555	198.540868091752	418.002109690694	903.841549940355	388.419166873746	635.440952914440	785.664530445624	334.222750749257	689.238830214511	786.782989544235	226.054016374220	634.293512188148	595.165908660550	124.767357953851	593.983698106759	771.340254355268	114.055678754786	643.289118370763	664.066689493654	84.118815398605	670.975019001718	859.903534917279	33.081689500403	673.149810806322	955.571694556488	37.105321266591	464.593097678529	1026.773426223652	35.609352768176	380.807672319450	1109.076303072672	97.936838804392	404.936860133295	1237.296423598956	49.625458028519	372.828399586317	829.877456568680	1085.359174907559	249.531265404869	791.821745116933	832.273485658624	255.923097626772	1003.040469505833	1108.955045711500	808.116405282824	1194.167999375897	1227.835278308114	708.873580569715	
37	1.544000000000	773.310887688020	1006.131117451627	517.794510403381	949.421727448999	1423.598132208473	327.782049040074	1053.443068126483	1359.209441183326	492.016735507289	969.330012859347	1442.735205282936	662.651613324898	948.802311351602	1492.018518156702	483.171190402542	991.981147124450	939.363086769533	644.933722305146	992.105740490984	952.249076360226	370.315748576191	1016.210846399840	730.478882095978	629.580898964768	921.221652723961	627.410938538081	686.600674394144	1002.652472268700	562.947573280178	620.241167916023	985.877959631052	457.270211355864	637.440196877129	1056.183093114938	761.764017231495	398.648285553623	983.381926888855	637.406548401841	334.523633943224	1078.207418789076	570.549098984996	396.325612013742	1087.129447040762	501.165278325704	404.217732617274	1068.626491185634	426.585302448889	395.961476417875	991.006048543793	302.497455709091	347.424171667268	1058.710911099315	198.463337596245	417.109340150078	912.547743692742	389.724309578513	635.930676316366	791.955829361975	339.999465772928	688.768690288140	789.720014939609	231.722615755014	634.321941171681	594.916170246130	139.223475117719	592.632715145390	769.873944965599	118.967150003673	643.129120375683	661.003651365217	94.572920625581	669.909897808979	853.544826296696	32.846011421582	673.438795037825	947.547486690443	37.078360607327	464.477918676604	1018.715459248017	35.550882174894	380.633848306818	1100.956359734597	98.008016322894	404.629977501573	1229.217769776059	49.873237738336	372.621423372310	834.792572974270	1084.534825632796	246.327840620038	804.193636778959	830.398004761019	252.399671135220	989.177622392661	1109.494989647734	806.526560595461	1188.504104876692	1215.323862699208	708.002624987624	
38	1.555500000000	772.343511593652	1007.279654966539	515.277012274046	949.860139234712	1424.577923638377	325.342365555736	1052.817456638072	1360.464368357401	490.328900554263	967.609388327149	1444.260982705145	660.308904481219	948.180220636269	1493.216188637327	480.609635097802	990.843972466993	940.478955215030	642.828249530576	991.384975778131	953.743838604452	368.326989135029	1020.753789731850	733.460153610822	628.209665594745	929.151631384198	628.302649303129	686.060552898109	1012.862605477959	565.248433101895	620.299696321019	997.489583492815	458.036386722601	638.606700008697	1053.371888150896	760.876678485487	394.549733173121	977.518449092939	637.504788102797	332.605041890246	1071.971795466687	569.616418129246	393.711280400118	1079.972931585649	500.630936200812	402.093029071170	1061.309462998764	426.306995238789	394.095497607974	982.979237506163	302.302402492780	346.444219897514	1050.715154612843	198.360676933000	416.262672687110	921.869349615755	391.416277491386	636.302109417437	799.069120495691	346.074106183127	688.144614446732	793.472549173877	237.881357432491	634.094539585635	595.947589709647	154.157771285375	590.872758537220	769.235427170054	124.651015807692	642.647816360408	659.029516869318	105.825919633613	668.555623703852	848.017549299943	33.228625600914	673.721982693014	939.446688887431	37.029361474022	464.412650977714	1010.573164464414	35.461064767707	380.506095143494	1092.782759751236	98.018579297352	404.365154391613	1221.076819017487	49.993719881285	372.450967080577	839.932819671796	1083.636476628776	243.029931559187	817.566559062725	828.553942738181	248.723362261880	975.155635692594	1110.369046371647	804.687789403837	1182.732875599362	1201.305710052349	707.601696666673	
39	1.567000000000	771.166486612611	1008.287611416238	512.924684814743	950.240676455387	1425.425277621974	322.998458156263	1052.047176928972	1361.592356697391	488.783080412826	965.655589253316	1445.660143086369	658.049600129786	947.427939499528	1494.292834785377	478.128446880742	989.620675566901	941.465412603466	640.862526977833	990.463069326888	955.111516583122	366.447415595167	1025.289855463106	736.686237663818	626.865841993773	937.288613905085	629.497925473886	685.653449860637	1023.091181779741	567.996747740278	620.289764208810	1009.338795217388	459.371476601347	639.540653500512	1050.192102591804	759.884626447381	390.798518501559	971.627634750998	637.618241026241	330.765081606141	1065.560047504500	568.687603764478	391.365517716478	1072.606843887807	500.054310636782	400.092809957348	1053.805970904618	426.014594579788	392.340048000783	974.845293272454	302.074732379490	345.479596688596	1042.622686074094	198.242423041676	415.469357741518	931.650816792494	393.500046871634	636.545673317467	806.860343068431	352.363205583766	687.355641812833	798.006964859728	244.419663594274	633.618326906805	598.260622176166	169.158778295737	588.748392494692	769.523649742477	131.007543758369	641.858836935856	658.264562893150	117.562639132874	666.929330704583	843.562978137492	34.404625182446	673.932219637029	931.290315340862	36.969952698993	464.371288263969	1002.374879000078	35.353590723629	380.405864634784	1084.582846299062	97.982629033913	404.133898424164	1212.899477354198	50.006060453531	372.315744666622	845.318519158568	1082.637195852289	239.672298269841	831.841008394737	826.791402527624	244.906914876060	961.185117861238	1111.540856493408	802.571875646255	1176.675185756919	1185.804627785901	707.731790353307	
